<?xml version="1.0" standalone="no"?>
<!DOCTYPE svg PUBLIC "-//W3C//DTD SVG 20010904//EN"
 "http://www.w3.org/TR/2001/REC-SVG-20010904/DTD/svg10.dtd">
<svg version="1.0" xmlns="http://www.w3.org/2000/svg"
 width="376.000000pt" height="376.000000pt" viewBox="0 0 376.000000 376.000000"
 preserveAspectRatio="xMidYMid meet">
<metadata>
Created by potrace 1.11, written by Peter Selinger 2001-2013
</metadata>
<g transform="translate(0.000000,376.000000) scale(0.100000,-0.100000)"
fill="#000000" stroke="none">
<path d="M1705 3740 c-664 -53 -1232 -437 -1516 -1025 -349 -722 -192 -1582
392 -2150 127 -123 200 -182 317 -254 410 -255 889 -349 1355 -266 404 72 790
292 1055 600 642 748 586 1856 -129 2550 -178 173 -302 260 -524 366 -293 140
-633 204 -950 179z m1288 -549 c13 -5 49 -32 80 -61 59 -54 76 -93 63 -145 -4
-14 -100 -130 -215 -257 l-209 -231 29 -68 c67 -157 40 -185 -276 -289 -97
-31 -102 -35 -170 -106 -66 -70 -73 -74 -113 -74 -26 0 -58 9 -81 22 l-38 22
-324 -110 c-178 -60 -326 -110 -327 -111 -2 -1 15 -185 38 -410 43 -406 43
-430 16 -494 -5 -12 88 17 326 103 359 129 378 132 426 85 27 -27 72 -144 72
-187 0 -42 -42 -86 -108 -110 -121 -46 -1168 -417 -1191 -423 -28 -7 -79 12
-102 39 -25 29 -59 130 -59 174 0 67 32 91 210 154 215 75 198 67 159 83 -41
17 -76 49 -96 86 -17 34 -217 1927 -210 1995 12 113 128 183 262 158 41 -8 99
-55 121 -99 10 -19 27 -143 50 -366 19 -185 37 -350 39 -368 l6 -32 392 134
c216 73 413 141 438 152 41 16 89 65 363 369 173 193 326 356 338 362 29 13
60 15 91 3z"/>
<path d="M1011 2968 c-19 -13 -44 -38 -54 -56 -19 -33 -19 -38 -3 -195 146
-1444 184 -1788 203 -1819 28 -49 76 -70 142 -64 61 6 97 27 125 76 19 32 19
34 -24 459 l-43 426 -37 32 c-40 35 -100 161 -100 210 0 40 32 87 69 103 30
12 31 15 26 54 -3 22 -21 190 -39 373 -19 182 -39 340 -44 350 -26 47 -61 67
-125 71 -52 3 -67 0 -96 -20z"/>
<path d="M2620 2395 c-30 -34 -88 -98 -129 -143 l-73 -82 133 46 c144 51 164
62 173 100 6 21 -25 116 -43 135 -3 3 -31 -22 -61 -56z"/>
<path d="M1760 2258 c-212 -72 -386 -132 -386 -132 -1 -1 5 -67 14 -148 l15
-148 26 7 c20 5 505 168 590 198 11 5 11 8 -2 23 -25 27 -38 73 -31 105 4 18
43 70 96 128 49 55 83 99 76 98 -7 0 -186 -59 -398 -131z"/>
<path d="M1285 2080 c-25 -28 -22 -66 13 -142 38 -85 55 -96 47 -31 -4 26 -10
79 -13 117 -8 75 -18 88 -47 56z"/>
</g>
</svg>
